<svg width="240" height="240" viewBox="0 0 240 240" fill="none" xmlns="http://www.w3.org/2000/svg">
<g clip-path="url(#clip0_287_9)">
<circle cx="120" cy="120" r="120" fill="white"/>
<path d="M72.9297 94.8809H23.5645V89.0215H72.9297V94.8809ZM68.877 112.41C68.877 114.331 67.7214 116.495 65.4102 118.904C63.457 120.955 61.4062 122.485 59.2578 123.494L51.9336 115.193C54.1471 114.998 56.2467 114.184 58.2324 112.752C60.5111 111.124 61.6504 109.269 61.6504 107.186C61.6504 106.079 60.9342 105.135 59.502 104.354C58.265 103.637 57.0443 103.279 55.8398 103.279C53.3333 103.279 50.6478 104.484 47.7832 106.893C41.9564 111.775 39.043 117.179 39.043 123.104V143.807L29.668 138.924V102.791H39.1406V106.502C40.5404 105.102 43.4375 103.637 47.832 102.107C49.9805 101.359 52.194 100.984 54.4727 100.984C59.1927 100.984 63.1966 102.791 66.4844 106.404C68.0794 108.162 68.877 110.164 68.877 112.41ZM119.805 94.8809H87.2852V102.693C87.4154 102.693 87.5456 102.758 87.6758 102.889C87.806 103.019 87.9199 103.084 88.0176 103.084C87.7572 103.084 87.6107 103.068 87.5781 103.035C87.5781 102.872 90.0033 102.352 94.8535 101.473C96.6439 101.147 98.418 100.984 100.176 100.984C107.5 100.984 112.204 103.035 114.287 107.137C115.687 109.871 116.387 115.389 116.387 123.689V142.488C115.703 142.228 113.115 141.17 108.623 139.314C108.623 138.273 108.411 137.605 107.988 137.312C106.263 138.322 104.847 139.087 103.74 139.607C100.225 141.268 96.1393 142.098 91.4844 142.098C85.0716 142.098 80.1237 140.079 76.6406 136.043C74.9479 134.09 74.1016 131.909 74.1016 129.5C74.1016 126.798 75.4362 124.113 78.1055 121.443C83.2812 116.268 89.7103 113.68 97.3926 113.68C102.048 113.68 105.791 114.754 108.623 116.902V112.41C107.191 110.587 105.791 109.367 104.424 108.748C103.089 108.13 101.25 107.853 98.9062 107.918C93.6654 108.016 88.8639 108.976 84.502 110.799C82.5488 111.613 80.6445 112.345 78.7891 112.996V109.383C79.2122 109.025 79.8307 108.488 80.6445 107.771C80.7747 107.609 80.8561 107.511 80.8887 107.479V94.8809H70.8789V89.0215H119.805V94.8809ZM108.623 125.789C108.623 124.357 106.914 123.071 103.496 121.932C100.664 120.988 98.304 120.516 96.416 120.516C89.5475 120.516 84.0462 122.99 79.9121 127.938C78.252 129.923 77.4219 131.551 77.4219 132.82C78.1055 135.197 80.791 136.385 85.4785 136.385C91.5332 136.385 97.0671 134.871 102.08 131.844C106.442 129.207 108.623 127.189 108.623 125.789ZM170.439 149.91C170.439 155.965 167.51 158.992 161.65 158.992C159.046 158.992 155.27 157.755 150.322 155.281C144.854 152.547 140.264 151.18 136.553 151.18C128.577 151.18 121.058 154.321 113.994 160.604C110.609 163.631 107.956 167.195 106.035 171.297C105.905 170.776 105.84 169.946 105.84 168.807C105.84 164.9 107.012 161.01 109.355 157.137C111.504 153.556 114.287 150.561 117.705 148.152C121.546 145.451 125.924 144.1 130.84 144.1C134.225 144.1 137.171 144.669 139.678 145.809C141.012 146.427 143.584 148.022 147.393 150.594C150.648 152.807 153.138 153.914 154.863 153.914C159.16 153.914 162.578 152.14 165.117 148.592C166.224 147.062 166.777 145.564 166.777 144.1C166.777 141.528 165.996 139.38 164.434 137.654C162.871 135.896 160.82 135.018 158.281 135.018C155.938 135.018 152.08 136.206 146.709 138.582C141.338 140.926 137.48 142.098 135.137 142.098C133.411 142.098 131.328 141.235 128.887 139.51C123.809 135.896 121.27 132.527 121.27 129.402C121.27 127.677 122.23 126.098 124.15 124.666C125.876 123.331 127.65 122.583 129.473 122.42L129.57 121.883L127.178 118.514C125.843 116.626 125.176 114.591 125.176 112.41C125.176 104.923 131.296 101.18 143.535 101.18C143.893 101.115 144.137 100.822 144.268 100.301V94.8809H118.975V89.0215H169.17V94.8809H151.836V103.084C151.836 104.614 152.275 105.558 153.154 105.916C153.708 105.916 154.408 105.411 155.254 104.402L157.109 102.156C157.598 101.668 158.477 101.342 159.746 101.18C161.797 101.18 163.75 102.352 165.605 104.695C166.452 105.77 167.005 106.844 167.266 107.918L162.139 113.777C162.074 112.28 161.764 110.913 161.211 109.676C160.462 108.016 159.486 107.186 158.281 107.186C157.826 107.186 157.288 107.397 156.67 107.82C156.051 108.243 155.742 108.667 155.742 109.09C155.742 109.578 155.954 110.164 156.377 110.848C156.865 111.661 157.142 112.166 157.207 112.361C157.435 113.11 157.549 114.054 157.549 115.193C157.549 119.588 155.758 122.566 152.178 124.129C149.801 125.171 146.058 125.691 140.947 125.691C134.437 125.691 129.993 127.14 127.617 130.037C126.673 131.176 126.217 132.104 126.25 132.82C126.283 133.797 126.771 134.66 127.715 135.408C128.659 136.124 129.635 136.482 130.645 136.482C132.5 136.482 136.064 135.197 141.338 132.625C147.555 129.598 152.568 128.051 156.377 127.986C159.86 127.921 162.79 129.467 165.166 132.625C167.087 135.132 168.47 138.322 169.316 142.195C170.065 145.613 170.439 148.185 170.439 149.91ZM151.445 110.701C151.445 106.762 149.346 104.793 145.146 104.793C141.761 104.793 138.555 105.981 135.527 108.357C132.272 110.896 130.645 113.81 130.645 117.098C130.645 118.888 131.328 120.418 132.695 121.688C134.095 122.957 135.69 123.592 137.48 123.592C139.336 123.624 141.436 122.957 143.779 121.59C145.863 120.385 147.588 118.986 148.955 117.391C150.615 115.438 151.445 113.208 151.445 110.701ZM216.094 94.8809H183.574V102.693C183.704 102.693 183.835 102.758 183.965 102.889C184.095 103.019 184.209 103.084 184.307 103.084C184.046 103.084 183.9 103.068 183.867 103.035C183.867 102.872 186.292 102.352 191.143 101.473C192.933 101.147 194.707 100.984 196.465 100.984C203.789 100.984 208.493 103.035 210.576 107.137C211.976 109.871 212.676 115.389 212.676 123.689V142.488C211.992 142.228 209.404 141.17 204.912 139.314C204.912 138.273 204.701 137.605 204.277 137.312C202.552 138.322 201.136 139.087 200.029 139.607C196.514 141.268 192.428 142.098 187.773 142.098C181.361 142.098 176.413 140.079 172.93 136.043C171.237 134.09 170.391 131.909 170.391 129.5C170.391 126.798 171.725 124.113 174.395 121.443C179.57 116.268 185.999 113.68 193.682 113.68C198.337 113.68 202.08 114.754 204.912 116.902V112.41C203.48 110.587 202.08 109.367 200.713 108.748C199.378 108.13 197.539 107.853 195.195 107.918C189.954 108.016 185.153 108.976 180.791 110.799C178.838 111.613 176.934 112.345 175.078 112.996V109.383C175.501 109.025 176.12 108.488 176.934 107.771C177.064 107.609 177.145 107.511 177.178 107.479V94.8809H167.168V89.0215H216.094V94.8809ZM204.912 125.789C204.912 124.357 203.203 123.071 199.785 121.932C196.953 120.988 194.593 120.516 192.705 120.516C185.837 120.516 180.335 122.99 176.201 127.938C174.541 129.923 173.711 131.551 173.711 132.82C174.395 135.197 177.08 136.385 181.768 136.385C187.822 136.385 193.356 134.871 198.369 131.844C202.731 129.207 204.912 127.189 204.912 125.789Z" fill="url(#paint0_linear_287_9)"/>
</g>
<defs>
<linearGradient id="paint0_linear_287_9" x1="67.9167" y1="94.4767" x2="219.781" y2="116.313" gradientUnits="userSpaceOnUse">
<stop stop-color="#F26B55"/>
<stop offset="1" stop-color="#FFAD21"/>
</linearGradient>
<clipPath id="clip0_287_9">
<rect width="240" height="240" fill="white"/>
</clipPath>
</defs>
</svg>
